<svg width="18" height="16" viewBox="0 0 18 16" fill="none" xmlns="http://www.w3.org/2000/svg">
<path d="M2.32902 2.16667H4.82902L6.49569 0.5H11.4957L13.1624 2.16667H15.6624C16.1044 2.16667 16.5283 2.34226 16.8409 2.65482C17.1534 2.96738 17.329 3.39131 17.329 3.83333L17.329 13.8333C17.329 14.2754 17.1534 14.6993 16.8409 15.0118C16.5283 15.3244 16.1044 15.5 15.6624 15.5H2.32902C1.88699 15.5 1.46307 15.3244 1.15051 15.0118C0.837948 14.6993 0.662354 14.2754 0.662354 13.8333L0.662354 3.83333C0.662354 3.39131 0.837948 2.96738 1.15051 2.65482C1.46307 2.34226 1.88699 2.16667 2.32902 2.16667ZM8.99569 4.66667C7.89062 4.66667 6.83081 5.10565 6.04941 5.88705C5.26801 6.66846 4.82902 7.72826 4.82902 8.83333C4.82902 9.9384 5.26801 10.9982 6.04941 11.7796C6.83081 12.561 7.89062 13 8.99569 13C10.1008 13 11.1606 12.561 11.942 11.7796C12.7234 10.9982 13.1624 9.9384 13.1624 8.83333C13.1624 7.72826 12.7234 6.66846 11.942 5.88705C11.1606 5.10565 10.1008 4.66667 8.99569 4.66667ZM8.99569 6.33333C9.65873 6.33333 10.2946 6.59672 10.7635 7.06557C11.2323 7.53441 11.4957 8.17029 11.4957 8.83333C11.4957 9.49637 11.2323 10.1323 10.7635 10.6011C10.2946 11.0699 9.65873 11.3333 8.99569 11.3333C8.33265 11.3333 7.69676 11.0699 7.22792 10.6011C6.75908 10.1323 6.49569 9.49637 6.49569 8.83333C6.49569 8.17029 6.75908 7.53441 7.22792 7.06557C7.69676 6.59672 8.33265 6.33333 8.99569 6.33333Z" fill="black"/>
</svg>
