<svg width="26" height="26" viewBox="0 0 26 26" fill="none" xmlns="http://www.w3.org/2000/svg">
  <path d="M16.8375 0.5H9.1625C2.1625 0.5 0.5 2.1625 0.5 9.1625V16.8375C0.5 23.8375 2.1625 25.5 9.1625 25.5H16.8375C23.8375 25.5 25.5 23.8375 25.5 16.8375V9.1625C25.5 2.1625 23.8375 0.5 16.8375 0.5ZM20.6875 18.3375H18.8625C18.175 18.3375 17.9625 17.775 16.75 16.5375C15.65 15.5 15.175 15.35 14.9125 15.35C14.55 15.35 14.4375 15.45 14.4375 15.975V17.6125C14.4375 18.05 14.3 18.325 13.1375 18.325C11.2125 18.325 9.075 17.15 7.575 14.9875C5.3125 11.8125 4.7 9.4125 4.7 8.9375C4.7 8.675 4.7875 8.425 5.3125 8.425H7.15C7.6125 8.425 7.7875 8.625 7.9625 9.125C8.8625 11.75 10.3625 14 10.975 14C11.2125 14 11.3125 13.8875 11.3125 13.3125V10.625C11.25 9.4 10.5875 9.2875 10.5875 8.85C10.5875 8.625 10.7625 8.425 11.05 8.425H13.9125C14.3 8.425 14.4375 8.625 14.4375 9.1V12.7125C14.4375 13.1 14.6 13.2375 14.725 13.2375C14.95 13.2375 15.15 13.1 15.5625 12.675C16.875 11.2125 17.8125 8.95 17.8125 8.95C17.9375 8.6875 18.1375 8.4375 18.625 8.4375H20.4125C20.9625 8.4375 21.0875 8.725 20.9625 9.1125C20.7375 10.175 18.5125 13.3125 18.5375 13.3125C18.3375 13.625 18.2625 13.7625 18.5375 14.125C18.725 14.3875 19.3625 14.9375 19.7875 15.425C20.5625 16.3125 21.1625 17.05 21.325 17.5625C21.4625 18.075 21.2125 18.3375 20.6875 18.3375Z" fill="black"/>
</svg>
